<svg t="1602662514465" class="icon" viewBox="0 0 1024 1024" version="1.1" xmlns="http://www.w3.org/2000/svg" p-id="2487" width="200" height="200"><path d="M617.544 737.771a74.048 73.561 0 1 0 148.096 0 74.048 73.561 0 1 0-148.096 0Z" p-id="2488" fill="#cccccc"></path><path d="M691.592 587.719c-89.97 0-236.958 102.989-236.958 147.122 0 44.136 146.987 147.122 236.958 147.122 89.972 0 236.958-102.986 236.958-147.122-0.001-44.134-146.987-147.122-236.958-147.122z m0 251.108c-57.254 0-103.668-46.109-103.668-102.986 0-56.876 46.414-102.986 103.668-102.986 57.257 0 103.669 46.109 103.669 102.986 0 56.878-46.413 102.986-103.669 102.986z" p-id="2489" fill="#cccccc"></path><path d="M461.549 795.69H161.92c-11.356 0-20.561-9.233-20.561-20.622V719.81l170.253-183.224 123.719 123.11L681.367 412.81l146.706 196.284c23.615 11.482 46.712 25.05 67.586 39.359V125.215c0-12.774-10.325-23.13-23.061-23.13H121.18c-12.737 0-23.061 10.355-23.061 23.13v690.713c0 12.774 10.325 23.13 23.061 23.13H513c-20.095-14.339-37.795-29.232-51.451-43.368zM141.36 166.076c0-11.389 9.205-20.622 20.561-20.622h669.938c11.356 0 20.561 9.233 20.561 20.622V580.15L680.596 351.33 435.332 598.095l-124-123.202L141.36 657.881V166.076z" p-id="2490" fill="#cccccc"></path><path d="M253.679 299.572a57.653 57.824 0 1 0 115.306 0 57.653 57.824 0 1 0-115.306 0Z" p-id="2491" fill="#cccccc"></path></svg>